HIERARCHY
ROOT Hips
{
  OFFSET 0 0 0
  CHANNELS 6 Xposition Yposition Zposition Zrotation Xrotation Yrotation
  JOINT Spine
  {
    OFFSET 0 8.83416 0
    CHANNELS 3 Zrotation Xrotation Yrotation
    JOINT Spine1
    {
      OFFSET 0 17.8555 0
      CHANNELS 3 Zrotation Xrotation Yrotation
      JOINT Neck
      {
        OFFSET 0 17.7822 1.61656
        CHANNELS 3 Zrotation Xrotation Yrotation
        JOINT Head
        {
          OFFSET 0 15.0827 -2.15467
          CHANNELS 3 Zrotation Xrotation Yrotation
          End Site
          {
            OFFSET 0 26.9334 0
          }
        }
      }
      JOINT LeftShoulder
      {
        OFFSET 4.28078 15.9895 -0.632416
        CHANNELS 3 Zrotation Xrotation Yrotation
        JOINT LeftArm
        {
          OFFSET 11.7359 0 0
          CHANNELS 3 Zrotation Xrotation Yrotation
          JOINT LeftForeArm
          {
            OFFSET 33.15 0 0
            CHANNELS 3 Zrotation Xrotation Yrotation
            JOINT LeftHand
            {
              OFFSET 28.5724 0 0
              CHANNELS 3 Zrotation Xrotation Yrotation
              End Site
              {
                OFFSET 16.1601 0 0
              }
            }
          }
        }
      }
      JOINT RightShoulder
      {
        OFFSET -4.29063 15.9895 -0.632416
        CHANNELS 3 Zrotation Xrotation Yrotation
        JOINT RightArm
        {
          OFFSET -11.7359 0 0
          CHANNELS 3 Zrotation Xrotation Yrotation
          JOINT RightForeArm
          {
            OFFSET -33.15 0 0
            CHANNELS 3 Zrotation Xrotation Yrotation
            JOINT RightHand
            {
              OFFSET -28.5724 0 0
              CHANNELS 3 Zrotation Xrotation Yrotation
              End Site
              {
                OFFSET -16.1601 0 0
              }
            }
          }
        }
      }
    }
  }
  JOINT LeftUpLeg
  {
    OFFSET 10.7734 0 0
    CHANNELS 3 Zrotation Xrotation Yrotation
    JOINT LeftLeg
    {
      OFFSET 0 -54.0627 0
      CHANNELS 3 Zrotation Xrotation Yrotation
      JOINT LeftFoot
      {
        OFFSET 0 -48.9411 0
        CHANNELS 3 Zrotation Xrotation Yrotation
        JOINT LeftToeBase
        {
          OFFSET 0 -7.00269 16.1601
          CHANNELS 3 Zrotation Xrotation Yrotation
          End Site
          {
            OFFSET 0 0 4.30935
          }
        }
      }
    }
  }
  JOINT RightUpLeg
  {
    OFFSET -10.7734 0 0
    CHANNELS 3 Zrotation Xrotation Yrotation
    JOINT RightLeg
    {
      OFFSET 0 -54.0627 0
      CHANNELS 3 Zrotation Xrotation Yrotation
      JOINT RightFoot
      {
        OFFSET 0 -48.9411 0
        CHANNELS 3 Zrotation Xrotation Yrotation
        JOINT RightToeBase
        {
          OFFSET 0 -7.00269 16.1601
          CHANNELS 3 Zrotation Xrotation Yrotation
          End Site
          {
            OFFSET 0 0 4.30935
          }
        }
      }
    }
  }
}
MOTION
Frames:	8
Frame Time:	0.00833333
205.702 111.025 24.0285 1.3315 -3.66194 -87.1095 -2.83368 -20.0782 -1.56443 2.44727 6.70527 -1.20606 -2.79162 41.6614 3.66665 0.439869 -25.681 3.24004 13.7018 0.239698 1.89893 -6.96776 6.98913 -6.00493 3.34648 -8.71654 -5.59662 -0.0145677 -8.55507 3.48575 -13.1075 -0.464903 12.1241 2.61468 -3.07798 2.9529 -5.3865 -1.40449 2.0415 -8.75262 -1.29531 -0.170496 -5.12583 7.55777 -3.76326 -0.179645 5.473 -4.83075 2.68909 -12.9148 18.1259 -0 -7.45443e-017 -0 -2.41579 8.99297 2.32924 -0.39138 2.37708 -1.65902 1.93192 -16.8682 -12.2137 -3.31043e-032 -1.19271e-015 -1.59028e-015 
205.618 111.025 24.1221 1.34168 -3.61461 -87.0816 -2.86285 -20.0998 -1.57211 2.43697 6.71856 -1.20765 -2.80475 41.4455 3.61409 0.496805 -25.341 3.20797 13.7349 0.220838 1.86384 -6.87865 6.98589 -6.02649 3.38955 -8.62781 -5.57708 -0.164526 -8.46922 3.4602 -13.1254 -0.581517 12.0474 2.60779 -3.11207 3.03054 -5.2833 -1.19588 1.90968 -8.85588 -1.09319 -0.187874 -5.14319 7.61478 -3.78777 -0.14007 5.43133 -4.83755 2.5891 -12.9187 18.1266 9.93923e-017 -1.98785e-016 -0 -2.39427 9.04073 2.26975 -0.420703 2.34346 -1.68614 1.93409 -16.7941 -12.1571 -3.97569e-016 5.96354e-016 1.59028e-015 
205.525 111.025 24.2079 1.37003 -3.54304 -87.0859 -2.85441 -20.1518 -1.55364 2.38733 6.73077 -1.18667 -2.73228 41.4166 3.53042 0.473075 -25.2246 3.13173 13.8103 0.214217 1.82256 -6.79628 7.06434 -6.04159 3.281 -8.91253 -5.68885 0.265656 -8.74326 3.58368 -13.1568 -0.649784 12.117 2.66933 -3.04992 2.86417 -5.29109 -1.18223 1.90363 -8.80627 -1.08279 -0.148534 -5.11948 7.67269 -3.82151 -0.139345 5.35745 -4.78989 2.42109 -12.9274 18.0976 1.98785e-016 -1.49089e-016 4.77083e-015 -2.34818 9.06946 2.22354 -0.452329 2.30873 -1.67764 1.97752 -16.729 -12.1244 -7.95139e-016 8.94531e-016 -0 
205.407 111.016 24.2872 1.3192 -3.45075 -87.0892 -2.84256 -20.1329 -1.55293 2.38188 6.72986 -1.18822 -2.81606 41.4954 3.52211 0.572963 -25.2212 3.1344 13.8326 0.229979 1.77684 -6.70707 7.13093 -6.01711 3.32716 -8.87551 -5.71107 0.221677 -8.70474 3.52536 -13.1193 -0.521545 12.166 2.58639 -3.09419 2.78331 -5.30348 -1.15687 1.85661 -8.83438 -1.06178 -0.117608 -5.06012 7.83634 -3.84892 -0.14915 5.25674 -4.71947 2.61659 -12.9314 18.0741 -9.93923e-017 2.73329e-016 -1.59028e-015 -2.27351 9.20759 2.17941 -0.482452 2.25318 -1.6301 2.00663 -16.6709 -12.144 -1.19271e-015 -3.97569e-016 -4.77083e-015 
205.295 111.009 24.3742 1.29635 -3.38746 -87.0689 -2.85816 -20.136 -1.5579 2.36671 6.77956 -1.19048 -2.89812 41.3843 3.51456 0.696529 -25.0658 3.15187 13.8755 0.202994 1.77751 -6.63741 7.18716 -6.03702 3.36314 -8.8087 -5.7637 0.256276 -8.63345 3.56374 -13.1165 -0.428698 12.138 2.52965 -3.1704 2.74682 -5.29472 -1.06706 1.78927 -8.99157 -0.974471 -0.124924 -5.00386 7.94541 -4.1211 -0.238593 5.19922 -4.55362 2.90528 -12.931 18.1886 9.93923e-017 -1.2424e-016 1.59028e-015 -2.2405 9.30738 2.06375 -0.502518 2.2182 -1.54564 2.07553 -16.6331 -12.1378 -3.97569e-016 4.96962e-016 -3.18055e-015 
205.172 110.993 24.4577 1.28557 -3.31247 -87.0786 -2.85709 -20.1386 -1.54709 2.35101 6.76204 -1.17848 -2.98308 41.3881 3.49086 0.820182 -24.9662 3.14826 13.9066 0.235218 1.73376 -6.56692 7.32055 -5.99747 3.41988 -8.69995 -5.82356 0.213589 -8.52153 3.4704 -13.1185 -0.478345 12.1363 2.541 -3.06726 2.69877 -5.28547 -1.02978 1.75885 -9.03336 -0.936535 -0.151708 -4.91407 8.04227 -4.48651 -0.386497 5.16136 -4.29348 3.07809 -12.9485 18.2842 0 1.98785e-016 -0 -2.20202 9.39962 2.05292 -0.518433 2.17495 -1.57964 2.16843 -16.6222 -12.0695 -0 -1.98785e-016 -0 
205.049 110.98 24.5485 1.26815 -3.25363 -87.0514 -2.86852 -20.1469 -1.57007 2.32393 6.79936 -1.19839 -3.23134 41.6164 3.75131 0.960262 -25.4176 3.39952 13.9375 0.250012 1.74424 -6.51254 7.42875 -5.98096 3.43607 -8.67411 -5.90293 0.351308 -8.4883 3.48439 -13.1014 -0.649555 12.1992 2.56068 -2.89551 2.58759 -5.28436 -0.922141 1.73731 -9.23245 -0.82303 -0.233125 -4.94213 8.16279 -4.33367 -0.274759 5.0947 -4.36322 2.95424 -12.9663 18.1688 -9.93923e-017 -2.48481e-017 1.59028e-015 -2.18173 9.50232 2.03935 -0.524462 2.1378 -1.65358 2.27431 -16.6177 -11.996 -8.27607e-033 -2.98177e-016 -1.59028e-015 
204.931 110.974 24.64 1.28794 -3.19554 -87.03 -2.88704 -20.1675 -1.58186 2.33898 6.7878 -1.20701 -3.40631 41.6706 3.84976 1.03843 -25.5107 3.48277 13.9202 0.270569 1.71618 -6.45545 7.58778 -5.92947 3.49536 -8.53703 -5.96564 0.313295 -8.34718 3.41408 -13.1631 -0.49687 12.1706 2.54119 -3.06365 2.59037 -5.27399 -0.831207 1.68464 -9.23729 -0.73676 -0.206328 -4.99203 8.23395 -4.11783 -0.112922 5.02372 -4.60012 2.72075 -12.9746 18.1446 -9.93923e-017 -7.45443e-017 -0 -2.16949 9.55336 2.01504 -0.52221 2.12492 -1.69007 2.38763 -16.6116 -11.9519 -7.95139e-016 -9.93923e-017 -1.59028e-015 
